<svg width="12" height="13" viewBox="0 0 12 13" fill="none" xmlns="http://www.w3.org/2000/svg">
<path d="M2.12054 1.24683C1.89913 1.02542 1.59884 0.901031 1.28572 0.901031C0.9726 0.901031 0.672305 1.02542 0.450897 1.24683C0.229489 1.46823 0.105103 1.76853 0.105103 2.08165C0.105103 2.39477 0.229489 2.69506 0.450897 2.91647L4.33036 6.79593L0.450897 10.6754C0.229489 10.8968 0.105103 11.1971 0.105103 11.5102C0.105103 11.8233 0.229489 12.1236 0.450897 12.345C0.672305 12.5664 0.9726 12.6908 1.28572 12.6908C1.59884 12.6908 1.89913 12.5664 2.12054 12.345L6 8.46558L9.87947 12.345C10.1009 12.5664 10.4012 12.6908 10.7143 12.6908C11.0274 12.6908 11.3277 12.5664 11.5491 12.345C11.7705 12.1236 11.8949 11.8233 11.8949 11.5102C11.8949 11.1971 11.7705 10.8968 11.5491 10.6754L7.66965 6.79593L11.5491 2.91647C11.7705 2.69506 11.8949 2.39477 11.8949 2.08165C11.8949 1.76853 11.7705 1.46823 11.5491 1.24683C11.3277 1.02542 11.0274 0.901031 10.7143 0.901031C10.4012 0.901031 10.1009 1.02542 9.87947 1.24683L6 5.12629L2.12054 1.24683Z" fill="#BFC3C4"/>
</svg>
