<svg width="21" height="20" viewBox="0 0 21 20" fill="none" xmlns="http://www.w3.org/2000/svg">
<path fill-rule="evenodd" clip-rule="evenodd" d="M10.84 11.7857C13.0096 11.7857 14.7686 10.0268 14.7686 7.85713C14.7686 5.68744 13.0096 3.92856 10.84 3.92856C8.67031 3.92856 6.91143 5.68744 6.91143 7.85713C6.91143 10.0268 8.67031 11.7857 10.84 11.7857ZM13.6971 7.85713C13.6971 9.43509 12.4179 10.7143 10.84 10.7143C9.26204 10.7143 7.98285 9.43509 7.98285 7.85713C7.98285 6.27917 9.26204 4.99999 10.84 4.99999C12.4179 4.99999 13.6971 6.27917 13.6971 7.85713Z" fill="#B1B6B8"/>
<path fill-rule="evenodd" clip-rule="evenodd" d="M4.88232 12.4136L9.41143 18.4523C10.1257 19.4048 11.5543 19.4048 12.2686 18.4523L16.7977 12.4136C16.8283 12.3737 16.8584 12.3334 16.8882 12.2929L17.0543 12.0714C17.0969 12.0145 17.1334 11.9542 17.1634 11.8915C17.9083 10.7262 18.34 9.34056 18.34 7.85715C18.34 3.71502 14.9822 0.357147 10.84 0.357147C6.69786 0.357147 3.34 3.71502 3.34 7.85715C3.34 9.34056 3.77174 10.7262 4.51658 11.8915C4.54661 11.9542 4.58302 12.0145 4.62571 12.0714L4.79176 12.2929C4.82155 12.3334 4.85174 12.3737 4.88232 12.4136ZM5.48285 11.4119C5.28841 11.1195 5.11726 10.8102 4.97209 10.4867C4.61183 9.68402 4.41142 8.79399 4.41142 7.85715C4.41142 4.30675 7.28959 1.42858 10.84 1.42858C14.3904 1.42858 17.2686 4.30675 17.2686 7.85715C17.2686 8.79399 17.0681 9.68402 16.7079 10.4867C16.5628 10.8102 16.3916 11.1195 16.1971 11.4119L16.1898 11.423L16.186 11.4286H16.1971L16.0277 11.6545C16.0002 11.692 15.9723 11.7292 15.9439 11.7663L11.4114 17.8095C11.1257 18.1905 10.5543 18.1905 10.2686 17.8095L5.7361 11.7662C5.70775 11.7292 5.67981 11.692 5.65225 11.6545L5.48285 11.4286H5.49396L5.49025 11.423L5.48285 11.4119Z" fill="#B1B6B8"/>
</svg>
