<svg width="19" height="19" viewBox="0 0 19 19" fill="none" xmlns="http://www.w3.org/2000/svg">
<path fill-rule="evenodd" clip-rule="evenodd" d="M8.57142 0.892761C4.33067 0.892761 0.892853 4.33057 0.892853 8.57133C0.892853 12.812 4.33067 16.2499 8.57142 16.2499C10.499 16.2499 12.2607 15.5396 13.609 14.3665L17.8355 18.5931C18.0448 18.8022 18.3839 18.8022 18.5931 18.5931C18.8024 18.3838 18.8024 18.0446 18.5931 17.8354L14.3666 13.6089C15.5397 12.2606 16.25 10.4989 16.25 8.57133C16.25 4.33057 12.8122 0.892761 8.57142 0.892761ZM1.96428 8.57133C1.96428 4.92231 4.9224 1.96419 8.57142 1.96419C12.2204 1.96419 15.1786 4.92231 15.1786 8.57133C15.1786 12.2203 12.2204 15.1785 8.57142 15.1785C4.9224 15.1785 1.96428 12.2203 1.96428 8.57133Z" fill="#B1B6B8"/>
</svg>
